<svg width="18" height="15" viewBox="0 0 18 15" fill="none" xmlns="http://www.w3.org/2000/svg">
<g filter="url(#filter0_i_2081_2274)">
<path d="M11.452 5.96901e-09C12.3738 2.26132e-09 13.2292 0.479714 13.7098 1.26626L16.4048 5.67622C16.9224 6.52325 16.9224 7.58875 16.4048 8.43578L13.7098 12.8457C13.2292 13.6323 12.3738 14.112 11.452 14.112H5.79599C4.8742 14.112 4.01884 13.6323 3.53817 12.8457L0.843197 8.43578C0.325568 7.58875 0.325568 6.52325 0.843196 5.67622L3.53817 1.26626C4.01884 0.479713 4.8742 3.24267e-08 5.79599 2.87191e-08L11.452 5.96901e-09Z" fill="url(#paint0_radial_2081_2274)"/>
<path d="M11.452 5.96901e-09C12.3738 2.26132e-09 13.2292 0.479714 13.7098 1.26626L16.4048 5.67622C16.9224 6.52325 16.9224 7.58875 16.4048 8.43578L13.7098 12.8457C13.2292 13.6323 12.3738 14.112 11.452 14.112H5.79599C4.8742 14.112 4.01884 13.6323 3.53817 12.8457L0.843197 8.43578C0.325568 7.58875 0.325568 6.52325 0.843196 5.67622L3.53817 1.26626C4.01884 0.479713 4.8742 3.24267e-08 5.79599 2.87191e-08L11.452 5.96901e-09Z" fill="#6344DF"/>
</g>
<path fill-rule="evenodd" clip-rule="evenodd" d="M8.67091 5.13923C7.58678 5.13923 6.70721 6.0188 6.70721 7.10293C6.70721 8.18706 7.58678 9.06663 8.67091 9.06663C9.27318 9.06663 9.81412 8.79381 10.1731 8.36656L11.6594 9.61877C10.9435 10.4688 9.86851 11.0097 8.66845 11.0097C6.50936 11.0097 4.7594 9.25978 4.7594 7.10069C4.7594 4.94161 6.50936 3.19165 8.66845 3.19165V5.13476L8.67068 5.13923H8.67091ZM12.0482 9.07111L10.3687 8.0915C10.4256 7.99369 10.4755 7.88917 10.5142 7.78242L12.3391 8.45519C12.2597 8.67116 12.1619 8.87572 12.0482 9.07111ZM10.6346 7.10293H12.5777C12.5777 6.87107 12.5573 6.6439 12.5186 6.42345L10.6051 6.76207C10.6254 6.87353 10.6346 6.987 10.6346 7.10293ZM11.6755 4.60299L10.1823 5.84625C10.1095 5.75762 10.0276 5.67817 9.94147 5.60297L11.1959 4.11889C11.3687 4.2666 11.5301 4.42797 11.6755 4.60299Z" fill="white"/>
<g style="mix-blend-mode:lighten" opacity="0.24">
<path d="M13.8119 1.42725L0.965698 8.61922C1.44316 9.39823 1.98402 10.279 2.49626 11.1419L15.3401 3.9385C14.8072 3.07181 14.2744 2.18368 13.8119 1.42725Z" fill="#FFF0FF"/>
<path d="M15.6556 4.44702L2.82397 11.6681C3.04116 12.0328 3.25856 12.3972 3.47906 12.7525L16.2834 5.47602C16.0782 5.12383 15.8678 4.81126 15.6556 4.44702Z" fill="#FFF0FF"/>
</g>
<defs>
<filter id="filter0_i_2081_2274" x="0.454956" y="0" width="17.906" height="15.6801" filterUnits="userSpaceOnUse" color-interpolation-filters="sRGB">
<feFlood flood-opacity="0" result="BackgroundImageFix"/>
<feBlend mode="normal" in="SourceGraphic" in2="BackgroundImageFix" result="shape"/>
<feColorMatrix in="SourceAlpha" type="matrix" values="0 0 0 0 0 0 0 0 0 0 0 0 0 0 0 0 0 0 127 0" result="hardAlpha"/>
<feOffset dx="1.568" dy="1.568"/>
<feGaussianBlur stdDeviation="1.6856"/>
<feComposite in2="hardAlpha" operator="arithmetic" k2="-1" k3="1"/>
<feColorMatrix type="matrix" values="0 0 0 0 1 0 0 0 0 1 0 0 0 0 1 0 0 0 0.8 0"/>
<feBlend mode="lighten" in2="shape" result="effect1_innerShadow_2081_2274"/>
</filter>
<radialGradient id="paint0_radial_2081_2274" cx="0" cy="0" r="1" gradientUnits="userSpaceOnUse" gradientTransform="translate(5.84497 -1.08781) rotate(86.5688) scale(5.05398 7.50661)">
<stop stop-color="#949494"/>
<stop offset="0.635171" stop-color="#181818"/>
<stop offset="1" stop-color="#1D1D1D"/>
</radialGradient>
</defs>
</svg>
