<svg width="16" height="16" viewBox="0 0 16 16" fill="none" xmlns="http://www.w3.org/2000/svg">
<g clip-path="url(#clip0_2081_2319)">
<path d="M11.3305 0.711089C10.2818 0.701975 9.27135 1.10515 8.51694 1.83378L8.51005 1.84053L7.36339 2.98053C7.10228 3.24012 7.10105 3.66223 7.36064 3.92334C7.62023 4.18445 8.04234 4.18568 8.30344 3.92609L9.44651 2.78967C9.94909 2.30591 10.6213 2.03831 11.319 2.04437C12.0182 2.05045 12.687 2.3309 13.1814 2.82532C13.6758 3.31974 13.9563 3.98857 13.9624 4.68777C13.9684 5.38513 13.701 6.05705 13.2177 6.55956L11.222 8.55524C10.9517 8.82568 10.6262 9.0349 10.268 9.16854C9.9097 9.30219 9.52688 9.35722 9.14547 9.3299C8.76406 9.30259 8.39299 9.19356 8.05742 9.01023C7.72185 8.82689 7.42963 8.57353 7.20059 8.26732C6.98005 7.97249 6.56226 7.91226 6.26743 8.1328C5.9726 8.35334 5.91237 8.77113 6.1329 9.06596C6.47647 9.52527 6.91479 9.90531 7.41815 10.1803C7.9215 10.4553 8.47811 10.6189 9.05023 10.6598C9.62234 10.7008 10.1966 10.6183 10.734 10.4178C11.2714 10.2173 11.7594 9.90362 12.1649 9.49796L14.1648 7.49805L14.1729 7.48979C14.9016 6.73538 15.3048 5.72497 15.2956 4.67618C15.2865 3.62739 14.8658 2.62414 14.1242 1.88251C13.3826 1.14088 12.3793 0.720202 11.3305 0.711089Z" fill="white"/>
<path d="M6.94991 5.34012C6.37779 5.29915 5.80356 5.38169 5.26615 5.58216C4.72878 5.78262 4.24081 6.09629 3.83531 6.5019L1.83531 8.5019L1.82719 8.51016C1.09856 9.26457 0.695383 10.275 0.704497 11.3238C0.713611 12.3726 1.13429 13.3758 1.87592 14.1174C2.61755 14.8591 3.6208 15.2797 4.66959 15.2889C5.71838 15.298 6.72878 14.8948 7.48319 14.1662L7.49146 14.158L8.63146 13.018C8.89181 12.7577 8.89181 12.3356 8.63146 12.0752C8.37111 11.8149 7.949 11.8149 7.68865 12.0752L6.55296 13.2109C6.05045 13.6943 5.37854 13.9616 4.68117 13.9556C3.98198 13.9495 3.31315 13.6691 2.81873 13.1746C2.32431 12.6802 2.04386 12.0114 2.03778 11.3122C2.03172 10.6148 2.29909 9.9429 2.78245 9.44039L4.77812 7.44471C5.04846 7.17427 5.37389 6.96505 5.73216 6.83141C6.09043 6.69776 6.47325 6.64273 6.85466 6.67005C7.23607 6.69736 7.60715 6.80639 7.94271 6.98972C8.27828 7.17306 8.5705 7.42642 8.79954 7.73262C9.02008 8.02746 9.43787 8.08769 9.7327 7.86715C10.0275 7.64661 10.0878 7.22882 9.86723 6.93399C9.52367 6.47468 9.08534 6.09464 8.58199 5.81963C8.07863 5.54463 7.52202 5.38109 6.94991 5.34012Z" fill="white"/>
</g>
<defs>
<clipPath id="clip0_2081_2319">
<rect width="16" height="16" fill="white"/>
</clipPath>
</defs>
</svg>
